<svg xmlns="http://www.w3.org/2000/svg" viewBox="0 0 313 105.2"><path d="M309.7 38.1V.6h-3.4V35L283.2.6h-3.4v37.5h-24c1.8-1.4 3.2-3.3 4.2-5.5 1.3-2.8 1.9-6 1.9-9.7v-4.8c-.1-3.6-.7-6.7-2-9.4s-3.1-4.8-5.5-6.3-5.1-2.2-8.2-2.2-5.8.8-8.2 2.3c-2.4 1.5-4.2 3.7-5.5 6.5-1.3 2.8-1.9 6.1-1.9 9.7v4.1c0 5.7 1.4 10.2 4.3 13.6.6.7 1.2 1.3 1.9 1.8h-24.7c2.3-1.9 3.4-4.3 3.4-7.3 0-2-.5-3.7-1.4-5.2-.9-1.5-2.3-2.7-4.2-3.8s-4.6-2.1-8.2-3.1c-3.6-1-6.2-2.1-7.8-3.4-1.6-1.3-2.5-3-2.5-5 0-2.2.9-4 2.7-5.4 1.8-1.4 4.3-2.1 7.3-2.1 3.2 0 5.7.8 7.5 2.5 1.9 1.7 2.8 3.9 2.8 6.6h3.4c0-2.3-.6-4.3-1.7-6.1-1.2-1.8-2.8-3.3-4.9-4.3S204 .1 201.4.1c-3.9 0-7.2 1-9.7 2.9-2.5 1.9-3.8 4.4-3.8 7.5 0 3.2 1.4 5.7 4.1 7.7 1.9 1.4 4.9 2.6 9.1 3.8 4.1 1.2 7 2.4 8.6 3.7s2.3 3.1 2.3 5.3c0 2.3-.9 4.1-2.8 5.5-1.2.8-2.6 1.4-4.2 1.8h-6.8c-1.9-.4-3.6-1.1-5-2.1-2.1-1.6-3.2-3.9-3.2-6.7h-3.4c0 2.3.6 4.4 1.8 6.2.7 1 1.5 1.8 2.5 2.6H171l-8.7-14.8c2.5-.8 4.6-2.1 6.1-4.1 1.5-2 2.3-4.2 2.3-6.8 0-3.7-1.2-6.6-3.6-8.7-2.4-2.1-5.7-3.1-10-3.1h-13v37.5h-16.4v-.2h-21.6V21.5h18.7v-2.9h-18.7V3.5h21.4V.6H103v37.5H83.5V.6H79L64.1 36 49.3.6h-4.5v37.5H28.4v-.2H6.8V21.5h18.7v-2.9H6.8V3.5h21.4V.6H3.4v37.5H0v3.8h313v-3.8h-3.3zM283.2 6.4l21.3 31.7h-21.3V6.4zm-45.8 27.7c-2.2-2.8-3.3-6.5-3.3-11.3v-4.2c0-4.9 1.1-8.7 3.3-11.5 2.2-2.7 5.2-4.1 8.9-4.1 3.8 0 6.8 1.4 9 4.1 2.2 2.7 3.3 6.5 3.3 11.3v4.2c0 4.9-1.1 8.7-3.2 11.5-1.6 2.1-3.8 3.4-6.4 3.9h-5c-2.8-.4-4.9-1.7-6.6-3.9zM147.7 3.5h9.6c3.2 0 5.8.8 7.6 2.3 1.8 1.6 2.7 3.8 2.7 6.6 0 2.6-.9 4.7-2.6 6.3-1.7 1.6-4 2.4-6.9 2.4h-10.4V3.5zm0 20.5h11.6l8.2 14.1h-19.8V24zM80.4 5.4l-.3 17.9v14.8H66.5L80.4 5.4zM48 5.5l13.8 32.6H48.2V23.2L48 5.5zm265 58.6H0v3.8h3.4v2.8h12.4v34.5h6.9V70.7h12.5v-2.8h5.3v37.3h7V87.4h17.9v17.8h6.9V67.9h13.6c-1.9 1.5-3.4 3.5-4.5 5.9-1.4 3-2.1 6.4-2.1 10.4v2.3c0 3.8.7 7.2 2.1 10.2 1.4 2.9 3.3 5.2 5.9 6.8 2.5 1.6 5.4 2.4 8.7 2.4 3.3 0 6.2-.8 8.7-2.4 2.5-1.6 4.5-3.9 5.8-6.8 1.4-3 2-6.4 2-10.3V84c0-3.9-.7-7.3-2.1-10.3-1.1-2.4-2.6-4.3-4.5-5.8h13.5v37.3h6.9V92l-.7-17.6 11.8 30.9h5l11.8-30.9-.5 17.6v13.2h6.9V67.9h8.2v37.3h7V90.3h8.3c4.6 0 8.3-1.1 10.8-3.3s3.9-5.2 3.9-9.2c0-3.8-1.3-6.9-4-9.3-.3-.3-.6-.5-.9-.7h13.9c-2.5 2.1-3.7 4.7-3.7 7.8 0 3.7 1.8 6.7 5.5 9 1.9 1.2 4.5 2.3 7.7 3.2 3.2 1 5.5 1.9 6.7 2.9 1.2 1 1.9 2.3 1.9 4.1 0 1.6-.6 2.9-1.8 3.9-1.2 1-3 1.5-5.5 1.5-2.8 0-5-.6-6.5-1.9-1.5-1.2-2.3-3-2.3-5.3h-7c0 2.5.7 4.7 2 6.6 1.3 1.9 3.2 3.4 5.7 4.4 2.4 1.1 5.1 1.6 8 1.6 4.4 0 7.9-1 10.4-3 2.6-2 3.8-4.6 3.8-8 0-2.1-.4-3.8-1.3-5.4-.9-1.5-2.3-2.9-4.2-4.1-1.9-1.2-4.4-2.2-7.5-3.2S214.3 80 213 79c-1.4-1-2-2.2-2-3.7 0-1.7.6-3.1 1.9-4.1 1.3-1 3-1.5 5.3-1.5 2.4 0 4.3.6 5.6 1.8 1.3 1.2 2 2.8 2 4.9h6.9c0-2.3-.6-4.4-1.9-6.3-.6-1-1.4-1.8-2.3-2.6h15.7c-1.9 1.5-3.4 3.5-4.5 5.9-1.4 3-2.1 6.4-2.1 10.4v2.3c0 3.8.7 7.2 2.1 10.2s3.3 5.2 5.9 6.8c2.5 1.6 5.4 2.4 8.7 2.4 3.3 0 6.2-.8 8.7-2.4 2.5-1.6 4.5-3.9 5.8-6.8 1.4-3 2-6.4 2-10.3v-2c0-3.9-.7-7.3-2.1-10.3-1.1-2.4-2.6-4.3-4.5-5.8h13.5v37.3h7V76.8l17.9 28.4h7V67.9h3.4v-3.8zM105.6 86.2c0 4.5-.8 7.9-2.5 10.3-1.7 2.3-4 3.5-7.1 3.5-3 0-5.4-1.2-7.1-3.6-1.7-2.4-2.6-5.8-2.6-10.2v-2.3c0-4.3.9-7.6 2.6-10 1.7-2.4 4.1-3.5 7.1-3.5 3.1 0 5.5 1.2 7.1 3.6s2.5 5.8 2.5 10.2v2zm84.2-3.2c-1.3 1.2-3.2 1.7-5.7 1.7h-8.4v-14h8.6c2.3 0 4.1.7 5.5 2 1.3 1.3 2 3 2 5.2s-.6 3.9-2 5.1zm74.1 3.2c0 4.5-.8 7.9-2.5 10.3s-4 3.5-7.1 3.5c-3 0-5.4-1.2-7.1-3.6-1.7-2.4-2.6-5.8-2.6-10.2v-2.3c0-4.3.9-7.6 2.6-10s4.1-3.5 7.1-3.5c3.1 0 5.5 1.2 7.1 3.6s2.5 5.8 2.5 10.2v2zM65.4 81.8H47.5V67.9h17.9v13.9zm74.7 14.1L129.6 68h21l-10.5 27.9zm162.6-2.2l-16.2-25.8h16.2v25.8z"/></svg>